<?xml version="1.0" encoding="UTF-8"?>
<svg version="1.1" xmlns="http://www.w3.org/2000/svg" width="512" height="512">
<path d="M0 0 C9.49628682 0.17917522 16.59936238 5.38937131 23.1875 11.9375 C24.13596219 12.94815643 25.07821315 13.96495606 26 15 C26.59425781 14.7834375 27.18851562 14.566875 27.80078125 14.34375 C38.56794115 10.72678804 47.72100287 10.94655088 58 16 C64.69136237 20.08067266 70.09103762 25.74792923 75.28515625 31.5546875 C78.3862058 34.34786307 80.7937236 35.27628568 84.75 36.5625 C125.31035139 50.73622061 163.58736566 78.02050285 190 112 C190.78761719 112.98226562 191.57523437 113.96453125 192.38671875 114.9765625 C209.73898215 136.78181877 223.16074682 161.57960034 232 188 C232.27924316 188.83337891 232.55848633 189.66675781 232.84619141 190.52539062 C235.8413823 199.62907856 238.32754123 208.79766209 240.25 218.1875 C240.40114258 218.92170166 240.55228516 219.65590332 240.70800781 220.41235352 C243.65767558 235.79157499 244.37501267 251.00201526 244.3125 266.625 C244.31034485 267.59555328 244.3081897 268.56610657 244.30596924 269.56607056 C244.2549334 283.89430898 243.90758438 297.92185782 241 312 C240.80132324 312.98307129 240.60264648 313.96614258 240.39794922 314.97900391 C231.30377081 358.70599357 211.51349844 399.23502012 181 432 C179.82858546 433.35006164 178.6617058 434.70407514 177.5 436.0625 C170.82927516 443.68181415 163.61572859 450.44593497 155.65185547 456.69873047 C154.48722976 457.61617874 153.32786739 458.54032782 152.17236328 459.46923828 C108.56557975 494.49226728 55.03293987 512.52974413 -0.6875 512.3125 C-1.6586676 512.31067719 -2.62983521 512.30885437 -3.63043213 512.30697632 C-17.6325203 512.26271428 -31.24864275 511.8487177 -45 509 C-45.84900879 508.83902832 -46.69801758 508.67805664 -47.57275391 508.51220703 C-78.93471564 502.53166075 -110.89355732 490.7255636 -137 472 C-138.18134114 471.18091905 -139.36367585 470.36326968 -140.546875 469.546875 C-152.87793344 460.96831653 -164.10110906 451.3133817 -175 441 C-175.680625 440.36191406 -176.36125 439.72382813 -177.0625 439.06640625 C-181.30628883 434.9699712 -184.99310371 430.47094021 -188.68359375 425.875 C-190.17495378 424.0240034 -191.68661746 422.18909151 -193.22265625 420.375 C-203.9289471 407.6860627 -212.30666325 393.66825391 -220 379 C-220.3801123 378.28457031 -220.76022461 377.56914062 -221.15185547 376.83203125 C-238.88719771 343.03870234 -246.46421612 305.29145532 -246.3125 267.375 C-246.31034485 266.40444672 -246.3081897 265.43389343 -246.30596924 264.43392944 C-246.2549334 250.10569102 -245.90758438 236.07814218 -243 222 C-242.80132324 221.01692871 -242.60264648 220.03385742 -242.39794922 219.02099609 C-230.89129151 163.69422767 -200.98766442 110.96940301 -156 76 C-155.01773438 75.21238281 -154.03546875 74.42476563 -153.0234375 73.61328125 C-128.45620106 54.06307957 -99.99301207 39.23841948 -69.6875 30.9375 C-64.14176042 29.33311827 -60.33107537 26.55627725 -55.81640625 23.02734375 C-46.10326354 16.03549761 -33.88881978 11.94355713 -22 11 C-21.00806641 10.92072266 -21.00806641 10.92072266 -19.99609375 10.83984375 C-11.88566115 10.49630793 -3.66162802 12.44612399 4 15 C3.566875 13.75283203 3.566875 13.75283203 3.125 12.48046875 C2.75375 11.39378906 2.3825 10.30710937 2 9.1875 C1.62875 8.10855469 1.2575 7.02960937 0.875 5.91796875 C0 3 0 3 0 0 Z " fill="#63BFF3" transform="translate(257,0)"/>
<path d="M0 0 C1.04776611 0.24786255 1.04776611 0.24786255 2.11669922 0.50073242 C5.68354139 1.42394066 8.2947795 2.17824352 10.5625 5.1875 C6.05926026 13.61120728 6.05926026 13.61120728 2.37109375 15.03125 C1.60925781 15.1859375 0.84742188 15.340625 0.0625 15.5 C-3.34541134 16.3231948 -4.24581953 16.91555333 -6.3125 19.84765625 C-13.6518955 34.36766225 -12.93514303 49.54735582 -8.046875 64.76171875 C-3.82103797 76.84348213 2.35069978 87.36290759 10.5625 97.1875 C11.36042969 98.16074219 12.15835938 99.13398438 12.98046875 100.13671875 C24.53432465 113.50842793 38.96510981 123.12107562 54.5625 131.1875 C55.44808594 131.69667969 56.33367187 132.20585937 57.24609375 132.73046875 C60.99696642 134.73916833 63.52217872 135.60779359 67.6875 134.4375 C69.3360574 133.74080531 70.95839593 132.98120974 72.5625 132.1875 C73.68785156 131.64480469 74.81320312 131.10210937 75.97265625 130.54296875 C103.53509219 116.77986966 126.32299118 94.78416251 136.90625 65.46484375 C137.87851211 62.38485629 138.78031129 59.32067399 139.5625 56.1875 C139.75328125 55.44242187 139.9440625 54.69734375 140.140625 53.9296875 C141.76620475 43.36341909 142.37423976 30.51738323 136.5625 21.1875 C135.90314453 20.12789063 135.90314453 20.12789063 135.23046875 19.046875 C133.18331516 16.76480215 131.6033094 16.30603897 128.6875 15.4375 C123.76199394 13.63460613 121.7515432 11.5025264 119.20703125 6.9921875 C118.88798828 6.09886719 118.88798828 6.09886719 118.5625 5.1875 C119.96998358 2.37253283 121.4463715 2.16841566 124.375 1.0625 C135.28909779 -2.41016748 149.5827778 -2.97709875 160.18359375 1.734375 C166.6620465 5.69165648 171.62303691 10.98081285 176.3125 16.875 C180.47162102 21.74277449 185.2888256 23.44694938 191.15234375 25.7421875 C199.97188339 29.48013672 205.6652848 35.4455114 209.5625 44.1875 C209.5625 45.1775 209.5625 46.1675 209.5625 47.1875 C210.15675781 47.35475586 210.75101562 47.52201172 211.36328125 47.69433594 C225.03419411 51.65422322 240.85652217 56.48312093 251.5625 66.1875 C252.44615234 66.96867187 252.44615234 66.96867187 253.34765625 67.765625 C267.159454 81.73473252 278.09228855 107.71841176 284.5625 126.1875 C284.37560995 132.23267416 282.13763725 136.51723305 279.1875 141.625 C278.52355225 142.79482422 278.52355225 142.79482422 277.84619141 143.98828125 C271.07013725 155.73059171 263.29417733 166.81763913 254.5625 177.1875 C254.12856934 177.71021484 253.69463867 178.23292969 253.24755859 178.77148438 C242.99961411 191.10417365 232.24395053 202.30626824 219.5625 212.1875 C218.3070289 213.19498515 217.051839 214.20282077 215.796875 215.2109375 C172.75028579 249.39937871 119.56289893 266.71321843 64.875 266.5 C63.9038324 266.49817719 62.93266479 266.49635437 61.93206787 266.49447632 C47.9299797 266.45021428 34.31385725 266.0362177 20.5625 263.1875 C19.71349121 263.02652832 18.86448242 262.86555664 17.98974609 262.69970703 C-13.37221564 256.71916075 -45.33105732 244.9130636 -71.4375 226.1875 C-72.61884114 225.36841905 -73.80117585 224.55076968 -74.984375 223.734375 C-87.31543344 215.15581653 -98.53860906 205.5008817 -109.4375 195.1875 C-110.118125 194.54941406 -110.79875 193.91132813 -111.5 193.25390625 C-115.74378883 189.1574712 -119.43060371 184.65844021 -123.12109375 180.0625 C-124.61245378 178.2115034 -126.12411746 176.37659151 -127.66015625 174.5625 C-136.29555432 164.32795413 -143.40017764 153.29052304 -149.9375 141.625 C-150.56966431 140.50049438 -150.56966431 140.50049438 -151.21459961 139.35327148 C-151.60784424 138.63727783 -152.00108887 137.92128418 -152.40625 137.18359375 C-152.75107422 136.55638428 -153.09589844 135.9291748 -153.45117188 135.28295898 C-153.9394043 134.24570679 -153.9394043 134.24570679 -154.4375 133.1875 C-155.11026978 131.84679443 -155.11026978 131.84679443 -155.79663086 130.47900391 C-156.73783137 125.64499809 -154.92669749 122.79028506 -152.72265625 118.52734375 C-152.31470322 117.70101944 -151.90675018 116.87469513 -151.48643494 116.02333069 C-150.17601371 113.38091003 -148.83840145 110.75333979 -147.5 108.125 C-146.63299299 106.38434535 -145.76774024 104.64281575 -144.90429688 102.90039062 C-142.45426079 97.97585309 -139.95848506 93.07605184 -137.4375 88.1875 C-137.08973511 87.51139679 -136.74197021 86.83529358 -136.38366699 86.13870239 C-128.14870055 70.20777528 -118.40508541 61.28679104 -101.875 54.5 C-100.98103516 54.12294922 -100.08707031 53.74589844 -99.16601562 53.35742188 C-84.44649869 47.1875 -84.44649869 47.1875 -80.4375 47.1875 C-80.32535156 46.45402344 -80.21320313 45.72054687 -80.09765625 44.96484375 C-78.47826267 38.15189208 -73.66102356 32.66268714 -68.03515625 28.6953125 C-65.93416026 27.47578701 -63.88631391 26.43879132 -61.68359375 25.4296875 C-53.31395365 21.58514102 -48.007711 18.3864378 -42.44921875 10.7421875 C-37.41214522 4.34559316 -29.43818865 0.40989056 -21.625 -1.5 C-14.01613137 -2.24596751 -7.42797835 -1.79978562 0 0 Z " fill="#404051" transform="translate(191.4375,245.8125)"/>
<path d="M0 0 C1.98 0.495 1.98 0.495 4 1 C4.09796875 1.73863281 4.1959375 2.47726563 4.296875 3.23828125 C6.79306817 20.17366076 13.80361394 32.66780572 27.6875 43 C33.90877911 48.38056572 36.10064522 55.02890141 37 63 C37.30995875 69.53621573 37.18923267 76.08417534 37.125 82.625 C37.11495103 84.41015123 37.10582857 86.19530794 37.09765625 87.98046875 C37.0757925 92.32044931 37.04136815 96.66016332 37 101 C37.66 101 38.32 101 39 101 C41.19226452 93.01152094 43.33676205 85.01077694 45.46630859 77.00537109 C46.39279897 73.52403901 47.32153538 70.04330596 48.25 66.5625 C48.58515625 65.30566406 48.9203125 64.04882812 49.265625 62.75390625 C49.62914062 61.39072266 49.62914062 61.39072266 50 60 C52.8001391 60.57649923 53.98596416 60.98830347 56.25 62.875 C58.89795903 67.60349827 58.80802314 71.69991599 58 77 C56.93483204 80.08166913 55.66634566 82.98319576 54.296875 85.94140625 C52.96924043 89.0725444 52.17518955 92.05949531 51.4375 95.375 C50.01597396 101.51085251 48.39426484 105.40382344 43 109 C40.95703125 109.1953125 40.95703125 109.1953125 38.8125 109.125 C37.554375 109.08375 36.29625 109.0425 35 109 C34.79375 110.134375 34.5875 111.26875 34.375 112.4375 C31.23582301 126.34579805 25.71238197 140.82751151 17.83300781 152.76855469 C15.81055554 155.88816562 14.99465845 157.73499997 15.0703125 161.48828125 C16.06164215 165.23284157 17.31973302 168.639789 18.875 172.1875 C19.38804687 173.37730469 19.90109375 174.56710938 20.4296875 175.79296875 C22.81695447 180.9233262 22.81695447 180.9233262 27.3046875 183.984375 C28.57699219 184.36335938 28.57699219 184.36335938 29.875 184.75 C34.63273511 186.51161038 36.63921594 188.403576 39.0625 192.8046875 C44.91445831 206.50802322 42.82829291 222.26160078 38 236 C37.649375 237.02222656 37.29875 238.04445313 36.9375 239.09765625 C32.11679494 251.80222271 23.92761984 262.87538085 15 273 C14.19369141 273.91458984 14.19369141 273.91458984 13.37109375 274.84765625 C3.58962666 285.21748226 -8.58894255 293.16776773 -21 300 C-21.5873291 300.33499512 -22.1746582 300.66999023 -22.77978516 301.01513672 C-31.66311628 306.02400908 -31.66311628 306.02400908 -36.28125 305.9765625 C-38.74838344 305.26772192 -40.74783861 304.23780209 -43 303 C-44.09699219 302.47792969 -45.19398438 301.95585937 -46.32421875 301.41796875 C-75.24932934 287.32328508 -98.20213892 263.32319689 -109 233 C-113.18063789 220.84953183 -114.38086014 205.98167237 -109 194 C-108.67128906 193.24976563 -108.34257812 192.49953125 -108.00390625 191.7265625 C-106.39508986 188.64253384 -105.24695725 186.45637253 -101.88671875 185.2265625 C-100.73623047 184.95972656 -100.73623047 184.95972656 -99.5625 184.6875 C-96.41740481 183.87249194 -95.25879481 183.33061892 -93.2265625 180.734375 C-91.65258935 177.87405832 -90.29440101 174.99673447 -89 172 C-88.57460937 171.09765625 -88.14921875 170.1953125 -87.7109375 169.265625 C-85.59727803 164.52067517 -84.09951677 161.06795528 -86 156 C-87.3622859 153.60691777 -88.80493562 151.27279504 -90.2578125 148.93359375 C-96.7996771 137.9180325 -105 122.02665418 -105 109 C-106.216875 109.0825 -107.43375 109.165 -108.6875 109.25 C-111.6410751 109.21353611 -113.01770882 108.99154806 -115.75 107.6875 C-119.1609956 103.61325526 -120.42437264 99.02018069 -122 94 C-122.5185781 92.43675006 -123.03922717 90.87418472 -123.5625 89.3125 C-123.91441406 88.22001953 -123.91441406 88.22001953 -124.2734375 87.10546875 C-124.96703432 85.00504577 -124.96703432 85.00504577 -125.8515625 83.05078125 C-128.2021189 77.63571441 -129.32559302 71.83435349 -128 66 C-125.46875 63.16796875 -125.46875 63.16796875 -123 61 C-108 87.37117904 -108 87.37117904 -108 101 C-107.01 100.505 -107.01 100.505 -106 100 C-105.55345187 97.83799725 -105.55345187 97.83799725 -105.4375 95.0625 C-105.36273438 93.90363281 -105.28796875 92.74476563 -105.2109375 91.55078125 C-105.02704551 87.92439739 -104.90563076 84.29709156 -104.7890625 80.66796875 C-104.75111572 79.53286865 -104.71316895 78.39776855 -104.67407227 77.22827148 C-104.60084768 74.94549101 -104.53595457 72.66242495 -104.48022461 70.37915039 C-104.03096155 55.88040308 -101.21685121 46.43316511 -90.6171875 36.2109375 C-87.24358773 33.36100098 -84.07642811 31.66076701 -80 30 C-79.17361624 32.89234315 -79 34.88742431 -79 38 C-68.20136838 36.85339411 -58.2788132 34.40133673 -48 31 C-47.21367187 30.74057617 -46.42734375 30.48115234 -45.6171875 30.21386719 C-27.74561723 24.21597282 -10.42221695 16.56988409 0 0 Z " fill="#FEA97B" transform="translate(291,76)"/>
<path d="M0 0 C21.54961966 4.30003879 44.34821652 17.22477927 62 30 C62.60376465 30.43538086 63.2075293 30.87076172 63.82958984 31.31933594 C82.51021087 44.85709512 99.79474489 59.72513126 114 78 C114.78761719 78.98226562 115.57523438 79.96453125 116.38671875 80.9765625 C133.73898215 102.78181877 147.16074682 127.57960034 156 154 C156.27924316 154.83337891 156.55848633 155.66675781 156.84619141 156.52539062 C159.8413823 165.62907856 162.32754123 174.79766209 164.25 184.1875 C164.40114258 184.92170166 164.55228516 185.65590332 164.70800781 186.41235352 C167.65767558 201.79157499 168.37501267 217.00201526 168.3125 232.625 C168.30926727 234.08082993 168.30926727 234.08082993 168.30596924 235.56607056 C168.2549334 249.89430898 167.90758438 263.92185782 165 278 C164.80132324 278.98307129 164.60264648 279.96614258 164.39794922 280.97900391 C160.06386633 301.81831332 153.61387207 321.9825593 144 341 C142.10067788 338.15101682 140.75913112 335.43334839 139.34765625 332.3203125 C138.82381348 331.17344971 138.2999707 330.02658691 137.76025391 328.8449707 C137.48352844 328.23787262 137.20680298 327.63077454 136.92169189 327.00527954 C132.50875314 317.34788112 128.00433796 307.74490327 123.125 298.3125 C122.71000244 297.49604004 122.29500488 296.67958008 121.86743164 295.83837891 C112.91648666 278.80025426 100.62040058 271.36134203 82.828125 265.19921875 C69.14710125 260.32747582 69.14710125 260.32747582 65.7890625 256.44140625 C64.64418994 253.98758703 63.80907231 251.57919736 63 249 C57.97422559 242.85738683 51.18975545 238.76785583 43.8125 236.0625 C37.40177759 233.34198335 33.64446846 228.5755142 29.14428711 223.46264648 C23.33188797 216.97504125 16.79874665 212.57751509 7.91625977 211.82299805 C-3.15720458 211.51800084 -12.6056692 211.75122245 -23 216 C-23.87279862 214.13360019 -24.72251027 212.25639389 -25.5625 210.375 C-26.03816406 209.33085937 -26.51382812 208.28671875 -27.00390625 207.2109375 C-28.16078976 203.48168947 -28.1117704 201.72657804 -27 198 C-25.68602536 195.53277294 -24.33657151 193.18669316 -22.875 190.8125 C-17.66061804 181.96170415 -14.26417662 172.70754796 -11 163 C-10.55993442 161.70962226 -10.11983322 160.41925666 -9.6796875 159.12890625 C-8.76867773 156.42454507 -7.87306299 153.71679848 -7 151 C-5.98679687 150.88785156 -5.98679687 150.88785156 -4.953125 150.7734375 C-4.06109375 150.64195312 -3.1690625 150.51046875 -2.25 150.375 C-1.36828125 150.25898438 -0.4865625 150.14296875 0.421875 150.0234375 C4.14038303 148.5473025 5.12683137 146.47757829 7 143 C8.17412699 139.7040297 8.17412699 139.7040297 9 136.25 C10.14700012 131.91233686 11.39480013 127.8952462 13.25 123.8125 C15.42350231 118.58574443 15.91899388 113.59505096 15 108 C13.19881522 104.99802536 12.09667268 103.54833634 9 102 C10.12526866 92.25716754 16.9022395 84.99009795 22.93359375 77.625 C29.90069738 69.57956867 29.90069738 69.57956867 33 60 C31.906875 59.401875 30.81375 58.80375 29.6875 58.1875 C24.72595271 55.33511249 24.72595271 55.33511249 23 53 C23 52.01 23 51.02 23 50 C23.90492188 49.61908203 23.90492188 49.61908203 24.828125 49.23046875 C30.75675636 46.70431624 30.75675636 46.70431624 36 43 C34.81189395 39.43568186 34.05967325 39.18151967 30.9375 37.3125 C20.91881829 30.80665795 14.42642014 21.55287634 7.49121094 12.0234375 C6.44240999 10.60031008 5.37629357 9.18986153 4.29785156 7.7890625 C3.74838867 7.07492188 3.19892578 6.36078125 2.6328125 5.625 C2.1289502 4.97789063 1.62508789 4.33078125 1.10595703 3.6640625 C0 2 0 2 0 0 Z " fill="#63BFF3" transform="translate(333,34)"/>
<path d="M0 0 C1.04776611 0.24786255 1.04776611 0.24786255 2.11669922 0.50073242 C5.68354139 1.42394066 8.2947795 2.17824352 10.5625 5.1875 C6.05926026 13.61120728 6.05926026 13.61120728 2.37109375 15.03125 C1.60925781 15.1859375 0.84742188 15.340625 0.0625 15.5 C-3.34541134 16.3231948 -4.24581953 16.91555333 -6.3125 19.84765625 C-10.21245142 27.56318514 -11.61579088 33.76566848 -11.5625 42.375 C-11.56056641 43.12515381 -11.55863281 43.87530762 -11.55664062 44.64819336 C-11.51344995 50.21559117 -11.1393397 55.66051233 -10.4375 61.1875 C-11.448125 61.105 -12.45875 61.0225 -13.5 60.9375 C-18.04710862 61.22620531 -20.99045573 62.29964291 -24.4375 65.1875 C-26.30800333 67.37510583 -28.01044494 69.61335327 -29.6640625 71.96875 C-33.40433745 76.64821293 -37.32495425 78.73011014 -42.9375 80.625 C-48.5774233 82.71928303 -52.55651745 84.47971959 -55.38671875 90.05859375 C-56.13482999 91.74099776 -56.79470755 93.46210974 -57.4375 95.1875 C-45.34286565 106.64220661 -32.28743863 114.32576779 -17.4375 122.1875 C-17.4375 149.5775 -17.4375 176.9675 -17.4375 205.1875 C-22.7175 205.5175 -27.9975 205.8475 -33.4375 206.1875 C-38.25125192 209.46578869 -38.25125192 209.46578869 -39.4375 212.1875 C-39.59270557 214.51023159 -39.68769167 216.83709313 -39.75390625 219.1640625 C-39.7850779 220.19193375 -39.7850779 220.19193375 -39.81687927 221.24057007 C-39.88230185 223.43111069 -39.94122554 225.62177189 -40 227.8125 C-40.04319218 229.2968875 -40.0868067 230.78126278 -40.13085938 232.265625 C-40.23797553 235.90612084 -40.33926362 239.54675251 -40.4375 243.1875 C-51.39808164 238.31760477 -61.57753912 233.02096947 -71.4375 226.1875 C-72.02660156 225.78241211 -72.61570312 225.37732422 -73.22265625 224.95996094 C-86.18218388 216.01004958 -98.00694649 206.00398234 -109.4375 195.1875 C-110.118125 194.54941406 -110.79875 193.91132813 -111.5 193.25390625 C-115.74378883 189.1574712 -119.43060371 184.65844021 -123.12109375 180.0625 C-124.61245378 178.2115034 -126.12411746 176.37659151 -127.66015625 174.5625 C-136.29555432 164.32795413 -143.40017764 153.29052304 -149.9375 141.625 C-150.56966431 140.50049438 -150.56966431 140.50049438 -151.21459961 139.35327148 C-151.60784424 138.63727783 -152.00108887 137.92128418 -152.40625 137.18359375 C-152.75107422 136.55638428 -153.09589844 135.9291748 -153.45117188 135.28295898 C-153.9394043 134.24570679 -153.9394043 134.24570679 -154.4375 133.1875 C-155.11026978 131.84679443 -155.11026978 131.84679443 -155.79663086 130.47900391 C-156.73783137 125.64499809 -154.92669749 122.79028506 -152.72265625 118.52734375 C-152.31470322 117.70101944 -151.90675018 116.87469513 -151.48643494 116.02333069 C-150.17601371 113.38091003 -148.83840145 110.75333979 -147.5 108.125 C-146.63299299 106.38434535 -145.76774024 104.64281575 -144.90429688 102.90039062 C-142.45426079 97.97585309 -139.95848506 93.07605184 -137.4375 88.1875 C-137.08973511 87.51139679 -136.74197021 86.83529358 -136.38366699 86.13870239 C-128.14870055 70.20777528 -118.40508541 61.28679104 -101.875 54.5 C-100.98103516 54.12294922 -100.08707031 53.74589844 -99.16601562 53.35742188 C-84.44649869 47.1875 -84.44649869 47.1875 -80.4375 47.1875 C-80.32535156 46.45402344 -80.21320313 45.72054687 -80.09765625 44.96484375 C-78.47826267 38.15189208 -73.66102356 32.66268714 -68.03515625 28.6953125 C-65.93416026 27.47578701 -63.88631391 26.43879132 -61.68359375 25.4296875 C-53.31395365 21.58514102 -48.007711 18.3864378 -42.44921875 10.7421875 C-37.41214522 4.34559316 -29.43818865 0.40989056 -21.625 -1.5 C-14.01613137 -2.24596751 -7.42797835 -1.79978562 0 0 Z " fill="#26263B" transform="translate(191.4375,245.8125)"/>
<path d="M0 0 C9.49628682 0.17917522 16.59936238 5.38937131 23.1875 11.9375 C24.13596219 12.94815643 25.07821315 13.96495606 26 15 C26.59425781 14.7834375 27.18851563 14.566875 27.80078125 14.34375 C38.56794115 10.72678804 47.72100287 10.94655088 58 16 C60.90283341 17.77026923 63.45330619 19.75195899 66 22 C66.59425781 22.51304688 67.18851563 23.02609375 67.80078125 23.5546875 C72.02950526 27.47399268 74.86195796 31.81260028 77.859375 36.70703125 C87.41430716 51.40558566 98.35764787 65.20194007 113 75 C111.14821156 79.16652399 109.01321821 80.76185907 105 83 C101.625 83.75 101.625 83.75 99 84 C101.39322241 89.23517403 105.16098377 91.29888643 110 94 C108.22896763 103.30325439 99.97577959 111.86932231 94.2644043 119.16503906 C86.28502898 129.52271913 83.43920038 140.72647774 80.625 153.3125 C78.73423433 161.54723399 76.38394444 169.23852742 73 177 C72.34 177 71.68 177 71 177 C70.97812622 175.36756348 70.97812622 175.36756348 70.95581055 173.70214844 C70.89720988 169.6090644 70.81998943 165.51649558 70.73754883 161.42382812 C70.7045867 159.66284639 70.67646852 157.90176627 70.65356445 156.140625 C70.66539196 135.99824642 70.66539196 135.99824642 61 119 C59.0670808 117.23115883 57.08921261 115.53233438 55.0859375 113.84375 C43.7032998 103.78269196 38.39068431 92.01939052 37 77 C36.01 76.67 35.02 76.34 34 76 C33.59587891 76.87398437 33.59587891 76.87398437 33.18359375 77.765625 C24.13088034 94.8552358 1.92213592 103.26362248 -15.52734375 108.68359375 C-25.21141709 111.57891901 -34.87993488 114.27713821 -45 115 C-45.144375 114.236875 -45.28875 113.47375 -45.4375 112.6875 C-45.9632594 109.91827092 -45.9632594 109.91827092 -47 107 C-56.64633879 112.97154306 -64.05051005 119.03282129 -68 130 C-69.28685896 136.46771971 -69.29411924 143.052761 -69.5 149.625 C-69.80407243 158.44002889 -70.16435546 167.2168425 -71 176 C-71.99 176.33 -72.98 176.66 -74 177 C-74.2019397 176.1793103 -74.2019397 176.1793103 -74.40795898 175.34204102 C-76.87351915 165.54018559 -79.43872237 156.2113301 -84.4375 147.375 C-92.11347458 133.69967055 -96.40218457 119.13382149 -100.5 104.0625 C-100.68402374 103.39417145 -100.86804749 102.7258429 -101.05764771 102.03726196 C-101.58099151 100.12294944 -102.08768918 98.20411003 -102.59375 96.28515625 C-103.03750977 94.61271851 -103.03750977 94.61271851 -103.49023438 92.90649414 C-103.98255729 90.09945187 -104.13152958 88.59234616 -103 86 C-101.35178756 84.96986723 -99.68496298 83.96885372 -98 83 C-97.67 82.01 -97.34 81.02 -97 80 C-97.61488281 79.55269531 -98.22976562 79.10539062 -98.86328125 78.64453125 C-107.44264195 72.22711472 -107.44264195 72.22711472 -109 68 C-108.71817037 66.32385533 -108.39021094 64.65427456 -108 63 C-107.39414063 62.85304687 -106.78828125 62.70609375 -106.1640625 62.5546875 C-89.7036791 58.14836948 -77.69995203 46.07266622 -67.41015625 32.9765625 C-57.65083712 20.9898223 -41.11437551 13.50204923 -25.9375 11.3125 C-24.638125 11.209375 -23.33875 11.10625 -22 11 C-21.00806641 10.92072266 -21.00806641 10.92072266 -19.99609375 10.83984375 C-11.88566115 10.49630793 -3.66162802 12.44612399 4 15 C3.71125 14.16855469 3.4225 13.33710938 3.125 12.48046875 C2.75375 11.39378906 2.3825 10.30710937 2 9.1875 C1.62875 8.10855469 1.2575 7.02960937 0.875 5.91796875 C0 3 0 3 0 0 Z " fill="#404051" transform="translate(257,0)"/>
<path d="M0 0 C14.23931879 4.00770415 30.86184431 8.9038755 42 19 C42.58910156 19.52078125 43.17820312 20.0415625 43.78515625 20.578125 C57.596954 34.54723252 68.52978855 60.53091176 75 79 C74.81310995 85.04517416 72.57513725 89.32973305 69.625 94.4375 C68.96105225 95.60732422 68.96105225 95.60732422 68.28369141 96.80078125 C61.50763725 108.54309171 53.73167733 119.63013913 45 130 C44.56606934 130.52271484 44.13213867 131.04542969 43.68505859 131.58398438 C33.43711411 143.91667365 22.68145053 155.11876824 10 165 C8.7445289 166.00748515 7.489339 167.01532077 6.234375 168.0234375 C-27.75682317 195 -27.75682317 195 -39 195 C-39.01458252 194.14768799 -39.02916504 193.29537598 -39.04418945 192.41723633 C-39.10543285 189.23928825 -39.17962029 186.06197454 -39.26245117 182.88452148 C-39.29559806 181.51224042 -39.32366171 180.13982638 -39.34643555 178.76733398 C-39.38016766 176.78862234 -39.4340149 174.81028624 -39.48828125 172.83203125 C-39.51446533 171.64327393 -39.54064941 170.4545166 -39.56762695 169.22973633 C-40.0452867 165.66171782 -40.73914088 163.79096595 -43 161 C-49.43080463 158.12916495 -49.43080463 158.12916495 -63 158 C-63 130.61 -63 103.22 -63 75 C-57.39 72.03 -51.78 69.06 -46 66 C-42.15308407 63.40751317 -38.59351255 60.88530204 -35 58 C-34.2272876 57.39333496 -34.2272876 57.39333496 -33.43896484 56.77441406 C-17.93991948 44.55357082 -3.99245904 28.88551714 0 9 C0.25761636 5.90431003 0.21083492 3.10981507 0 0 Z " fill="#2B2B41" transform="translate(401,293)"/>
<path d="M0 0 C1.32 0.33 2.64 0.66 4 1 C4.14695312 2.10794922 4.14695312 2.10794922 4.296875 3.23828125 C6.79306817 20.17366076 13.80361394 32.66780572 27.6875 43 C33.90877911 48.38056572 36.10064522 55.02890141 37 63 C37.30995875 69.53621573 37.18923267 76.08417534 37.125 82.625 C37.11495103 84.41015123 37.10582857 86.19530794 37.09765625 87.98046875 C37.0757925 92.32044931 37.04136815 96.66016332 37 101 C37.66 101 38.32 101 39 101 C41.19226452 93.01152094 43.33676205 85.01077694 45.46630859 77.00537109 C46.39279897 73.52403901 47.32153538 70.04330596 48.25 66.5625 C48.58515625 65.30566406 48.9203125 64.04882812 49.265625 62.75390625 C49.62914062 61.39072266 49.62914062 61.39072266 50 60 C52.8001391 60.57649923 53.98596416 60.98830347 56.25 62.875 C58.89795903 67.60349827 58.80802314 71.69991599 58 77 C56.93483204 80.08166913 55.66634566 82.98319576 54.296875 85.94140625 C52.96924043 89.0725444 52.17518955 92.05949531 51.4375 95.375 C50.01597396 101.51085251 48.39426484 105.40382344 43 109 C40.95703125 109.1953125 40.95703125 109.1953125 38.8125 109.125 C37.554375 109.08375 36.29625 109.0425 35 109 C34.79375 110.134375 34.5875 111.26875 34.375 112.4375 C31.43521618 125.46237552 26.09411091 137.48759931 19.90332031 149.25195312 C18.63892465 151.6987296 17.48474668 154.19555422 16.3125 156.6875 C14.37940219 160.54089365 12.21854376 163.08085566 9 166 C7.85003363 167.37154525 6.70474374 168.74701659 5.5625 170.125 C1.985652 174.17876106 -1.90689004 177.58184536 -6.125 180.9375 C-6.71079834 181.41010254 -7.29659668 181.88270508 -7.90014648 182.36962891 C-11.45261238 185.12770796 -14.58488453 186.82576716 -19 188 C-48.04453145 161.67132084 -53.91940967 115.00187122 -56 78 C-56.07009277 76.75814941 -56.07009277 76.75814941 -56.14160156 75.49121094 C-56.67901749 64.36805607 -56.08830712 53.17661425 -51 43 C-50.7724985 41.12943209 -50.59037189 39.25314042 -50.4375 37.375 C-50.35371094 36.37210938 -50.26992187 35.36921875 -50.18359375 34.3359375 C-50.12300781 33.56507812 -50.06242188 32.79421875 -50 32 C-49.43716309 31.79955078 -48.87432617 31.59910156 -48.29443359 31.39257812 C-29.63692969 24.68545832 -11.023401 17.52568362 0 0 Z " fill="#FEBA98" transform="translate(291,76)"/>
<path d="M0 0 C0.76183594 -0.01675781 1.52367187 -0.03351563 2.30859375 -0.05078125 C4.5625 0.3125 4.5625 0.3125 6.36178589 1.81139565 C9.11632575 3.69026385 10.71363014 3.68956446 14.02783203 3.69345093 C15.13821838 3.7019104 16.24860474 3.71036987 17.39263916 3.71908569 C18.60627136 3.713013 19.81990356 3.70694031 21.0703125 3.70068359 C22.35194275 3.70594055 23.633573 3.71119751 24.95404053 3.71661377 C28.46644353 3.73028617 31.97858208 3.72498919 35.49098969 3.71547651 C39.1673402 3.70787946 42.84366812 3.71492565 46.52001953 3.71963501 C52.69372624 3.72509244 58.86732527 3.71790133 65.04101562 3.70361328 C72.17792706 3.68728672 79.31458138 3.69257524 86.45148659 3.7090925 C92.5798392 3.72270777 98.70811443 3.72462685 104.83647728 3.71677649 C108.49635406 3.71210017 112.15611 3.7114739 115.815979 3.72138596 C119.89570333 3.73166337 123.97498462 3.71741761 128.0546875 3.70068359 C129.2683197 3.70675629 130.4819519 3.71282898 131.73236084 3.71908569 C132.84274719 3.71062622 133.95313354 3.70216675 135.09716797 3.69345093 C136.06169891 3.69231985 137.02622986 3.69118877 138.01998901 3.69002342 C140.99341714 3.24851549 142.28469253 2.21002819 144.5625 0.3125 C146.81640625 -0.05078125 146.81640625 -0.05078125 149.125 0 C149.88941406 0.00386719 150.65382813 0.00773437 151.44140625 0.01171875 C153.5625 0.3125 153.5625 0.3125 156.5625 2.3125 C156.5625 2.9725 156.5625 3.6325 156.5625 4.3125 C157.57570313 4.27769531 158.58890625 4.24289062 159.6328125 4.20703125 C160.9843583 4.17887405 162.33592219 4.15157597 163.6875 4.125 C164.35265625 4.09986328 165.0178125 4.07472656 165.703125 4.04882812 C170.44057306 3.97915977 173.61698078 4.67643571 177.5625 7.3125 C180.63121025 11.35144753 180.91940104 14.35525208 180.85546875 19.36328125 C180.85122391 20.02208786 180.84697906 20.68089447 180.84260559 21.35966492 C180.82591196 23.44853885 180.78828058 25.53642139 180.75 27.625 C180.73494097 29.04751203 180.72125469 30.4700393 180.70898438 31.89257812 C180.67604003 35.36620351 180.62432408 38.83925487 180.5625 42.3125 C146.62737411 57.9731833 112.15636514 65.77035344 74.875 65.625 C73.4182486 65.62226578 73.4182486 65.62226578 71.93206787 65.61947632 C57.9299797 65.57521428 44.31385725 65.1612177 30.5625 62.3125 C29.71349121 62.15152832 28.86448242 61.99055664 27.98974609 61.82470703 C16.5509987 59.64340349 5.49842991 56.50399973 -5.5625 52.875 C-6.66424561 52.51583496 -7.76599121 52.15666992 -8.90112305 51.78662109 C-16.42686886 49.23615681 -23.42014546 46.03411116 -30.4375 42.3125 C-30.56168758 38.00758537 -30.65211002 33.7036365 -30.7121582 29.39746094 C-30.73720529 27.93471093 -30.77125392 26.47208488 -30.81469727 25.00976562 C-30.87579356 22.89942781 -30.90380435 20.79075248 -30.92578125 18.6796875 C-30.95196533 17.41237793 -30.97814941 16.14506836 -31.00512695 14.83935547 C-30.25605615 10.18512886 -28.73423397 8.61885086 -25.4375 5.3125 C-22.24925432 3.71837716 -18.80853338 4.21075265 -15.3125 4.25 C-14.55839844 4.25451172 -13.80429688 4.25902344 -13.02734375 4.26367188 C-11.16402873 4.27546501 -9.30075445 4.29340058 -7.4375 4.3125 C-7.4375 3.6525 -7.4375 2.9925 -7.4375 2.3125 C-4.35229997 0.25569998 -3.52476496 0.01783186 0 0 Z " fill="#FACB67" transform="translate(181.4375,446.6875)"/>
<path d="M0 0 C3.49293931 0.68169301 6.87857553 1.49539016 10.296875 2.48828125 C50.81424297 14.01433602 85.07900367 14.05496258 125.4206543 1.69262695 C128.26168845 0.92972928 131.09719681 0.46700925 134 0 C134.02312446 9.76150988 134.04091561 19.5230133 134.05181217 29.28454494 C134.05704078 33.81674094 134.06413801 38.34891827 134.07543945 42.88110352 C134.08626914 47.2512283 134.09227701 51.62133508 134.09487724 55.99147224 C134.09673135 57.66250963 134.10035168 59.33354597 134.10573006 61.00457573 C134.11294159 63.33697551 134.1139909 65.66929993 134.11352539 68.00170898 C134.11712067 68.6994191 134.12071594 69.39712921 134.12442017 70.11598206 C134.11405216 74.88594784 134.11405216 74.88594784 133 76 C131.29405909 76.09839707 129.58402029 76.12632028 127.87524414 76.12698364 C126.7646463 76.12980347 125.65404846 76.13262329 124.50979614 76.13552856 C123.28066498 76.13350433 122.05153381 76.1314801 120.78515625 76.12939453 C119.4991452 76.13114685 118.21313416 76.13289917 116.88815308 76.13470459 C113.35105836 76.13927853 109.81399268 76.13748953 106.27689743 76.1343255 C102.58311634 76.1318017 98.88933782 76.1341395 95.19555664 76.13571167 C88.99136913 76.13753331 82.78719352 76.13512721 76.58300781 76.13037109 C69.40016636 76.12492848 62.21735329 76.12669114 55.03451252 76.1321975 C48.87826195 76.1367288 42.72201994 76.1373791 36.56576824 76.13475883 C32.88418296 76.13319615 29.20261104 76.13300205 25.52102661 76.13629532 C21.41894843 76.13970812 17.31691953 76.13498402 13.21484375 76.12939453 C11.371147 76.13243088 11.371147 76.13243088 9.49020386 76.13552856 C7.8243071 76.13129883 7.8243071 76.13129883 6.12475586 76.12698364 C5.15356308 76.12660662 4.1823703 76.12622959 3.18174744 76.12584114 C1 76 1 76 0 75 C-0.09492722 72.65746218 -0.12559791 70.34453896 -0.11352539 68.00170898 C-0.11367142 67.27004517 -0.11381744 66.53838135 -0.1139679 65.7845459 C-0.11326867 63.35503216 -0.10547585 60.92559417 -0.09765625 58.49609375 C-0.0957921 56.81600486 -0.09436819 55.13591543 -0.09336853 53.45582581 C-0.08954307 49.02526357 -0.07971256 44.5947339 -0.06866455 40.16418457 C-0.05845103 35.64657024 -0.05387104 31.12895066 -0.04882812 26.61132812 C-0.03809031 17.74087107 -0.02101356 8.87043824 0 0 Z " fill="#2C2C42" transform="translate(189,375)"/>
<path d="M0 0 C-0.66 1.32 -1.32 2.64 -2 4 C-2.66 4 -3.32 4 -4 4 C2.34006876 23.28126794 12.84616654 37.64832522 31 47 C40.64204294 51.35615591 48.69854851 53.18010821 59.1875 53.1875 C60.53038086 53.20586914 60.53038086 53.20586914 61.90039062 53.22460938 C77.22082505 53.25779443 90.97785831 48.53480203 103 39 C103.68578125 38.48953125 104.3715625 37.9790625 105.078125 37.453125 C115.95935659 28.79954712 121.49782296 16.76499608 126 4 C125.360625 3.71125 124.72125 3.4225 124.0625 3.125 C122 2 122 2 121 0 C125.28848499 0.29542897 128.78575334 0.74502389 131.86328125 3.92578125 C139.10411081 14.61633606 139.50670426 26.66864123 137.67919922 39.19970703 C136.80736046 43.58856239 135.48166461 47.78407931 134 52 C133.649375 53.02222656 133.29875 54.04445313 132.9375 55.09765625 C128.11679494 67.80222271 119.92761984 78.87538085 111 89 C110.19369141 89.91458984 110.19369141 89.91458984 109.37109375 90.84765625 C99.58962666 101.21748226 87.41105745 109.16776773 75 116 C74.4126709 116.33499512 73.8253418 116.66999023 73.22021484 117.01513672 C64.33688372 122.02400908 64.33688372 122.02400908 59.71875 121.9765625 C57.25161656 121.26772192 55.25216139 120.23780209 53 119 C51.90300781 118.47792969 50.80601562 117.95585937 49.67578125 117.41796875 C20.75067066 103.32328508 -2.20213892 79.32319689 -13 49 C-17.61344719 35.59162914 -18.06922216 20.62379537 -11.8984375 7.69140625 C-9.8730737 4.02615111 -8.67557244 2.31791644 -4.8125 0.5 C-2 0 -2 0 0 0 Z " fill="#C0D2E4" transform="translate(195,260)"/>
<path d="M0 0 C7.20299991 -0.30509944 14.03047065 1.49554077 20.99609375 3.16015625 C20.99609375 4.15015625 20.99609375 5.14015625 20.99609375 6.16015625 C20.22265625 6.45148437 19.44921875 6.7428125 18.65234375 7.04296875 C12.01557437 9.65496462 6.36162457 12.42814593 0.99609375 17.16015625 C0.45082031 17.63839844 -0.09445313 18.11664062 -0.65625 18.609375 C-2.57501033 20.81733979 -2.94119339 23.11911956 -3.1875 25.98046875 C-2.67949284 32.01170274 1.74626213 36.11166326 6.12109375 39.84765625 C6.80429688 40.42128906 7.4875 40.99492188 8.19140625 41.5859375 C11.80412734 44.73729378 13.15745212 47.50707148 13.49609375 52.22265625 C13.19964479 61.11612497 7.94967101 69.39420091 3.99609375 77.16015625 C2.93756506 80.33574231 2.86270879 82.63963506 2.87109375 85.97265625 C2.86851562 86.98972656 2.8659375 88.00679688 2.86328125 89.0546875 C2.99630261 92.16503987 3.42039712 95.10348127 3.99609375 98.16015625 C0.85282597 98.98279951 -2.29391246 99.79134697 -5.44140625 100.59765625 C-6.31990234 100.82775391 -7.19839844 101.05785156 -8.10351562 101.29492188 C-13.74606872 102.73158668 -19.20272129 103.64672482 -25.00390625 104.16015625 C-25.14828125 103.39703125 -25.29265625 102.63390625 -25.44140625 101.84765625 C-25.96716565 99.07842717 -25.96716565 99.07842717 -27.00390625 96.16015625 C-36.65024504 102.13169931 -44.0544163 108.19297754 -48.00390625 119.16015625 C-49.29076521 125.62787596 -49.29802549 132.21291725 -49.50390625 138.78515625 C-49.80797868 147.60018514 -50.16826171 156.37699875 -51.00390625 165.16015625 C-51.99390625 165.49015625 -52.98390625 165.82015625 -54.00390625 166.16015625 C-54.20584595 165.33946655 -54.20584595 165.33946655 -54.41186523 164.50219727 C-56.8774254 154.70034184 -59.44262862 145.37148635 -64.44140625 136.53515625 C-72.11738083 122.8598268 -76.40609082 108.29397774 -80.50390625 93.22265625 C-80.68792999 92.5543277 -80.87195374 91.88599915 -81.06155396 91.19741821 C-81.58489776 89.28310569 -82.09159543 87.36426628 -82.59765625 85.4453125 C-83.04141602 83.77287476 -83.04141602 83.77287476 -83.49414062 82.06665039 C-83.98646354 79.25960812 -84.13543583 77.75250241 -83.00390625 75.16015625 C-81.35569381 74.13002348 -79.68886923 73.12900997 -78.00390625 72.16015625 C-77.67390625 71.17015625 -77.34390625 70.18015625 -77.00390625 69.16015625 C-77.61878906 68.71285156 -78.23367187 68.26554687 -78.8671875 67.8046875 C-87.4465482 61.38727097 -87.4465482 61.38727097 -89.00390625 57.16015625 C-88.72207662 55.48401158 -88.39411719 53.81443081 -88.00390625 52.16015625 C-87.39804688 52.01320312 -86.7921875 51.86625 -86.16796875 51.71484375 C-69.70758535 47.30852573 -57.70385828 35.23282247 -47.4140625 22.13671875 C-37.65474337 10.14997855 -21.11828176 2.66220548 -5.94140625 0.47265625 C-3.96090812 0.31547386 -1.98041083 0.15827845 0 0 Z " fill="#2C2C42" transform="translate(237.00390625,10.83984375)"/>
<path d="M0 0 C0.76183594 -0.01675781 1.52367187 -0.03351563 2.30859375 -0.05078125 C4.5625 0.3125 4.5625 0.3125 6.30206299 1.80818176 C9.31369751 3.81242108 11.38104283 3.7099665 14.98339844 3.74487305 C16.28444519 3.76466721 17.58549194 3.78446136 18.92596436 3.80485535 C20.34126643 3.81162466 21.75657008 3.81807158 23.171875 3.82421875 C24.62348958 3.84106836 26.07508959 3.85921898 27.52667236 3.87861633 C31.3406316 3.92609242 35.15453177 3.95591695 38.96868896 3.98205566 C42.8633592 4.01187346 46.757826 4.05839955 50.65234375 4.10351562 C58.2889615 4.1895214 65.92559409 4.25687848 73.5625 4.3125 C71.07795659 6.31589644 68.60633799 8.28149264 66 10.125 C61.49260421 14.17009879 58.86735548 19.31342171 58.40428162 25.38800049 C58.38873734 26.12524353 58.37319305 26.86248657 58.35717773 27.62207031 C58.33723251 28.46263977 58.31728729 29.30320923 58.29673767 30.16925049 C58.28002518 31.06730408 58.26331268 31.96535767 58.24609375 32.890625 C58.2149221 34.28048615 58.2149221 34.28048615 58.18312073 35.69842529 C58.11783039 38.65304272 58.05883569 41.60774768 58 44.5625 C57.95679527 46.56771732 57.91318035 48.57292585 57.86914062 50.578125 C57.76217001 55.48949404 57.66084482 60.40095097 57.5625 65.3125 C49.0729764 64.81243111 40.74607445 64.07145224 32.375 62.5625 C30.90099731 62.2991687 30.90099731 62.2991687 29.3972168 62.03051758 C16.32775762 59.61806793 3.69592673 56.17454904 -8.875 51.875 C-10.04518677 51.47897583 -10.04518677 51.47897583 -11.23901367 51.07495117 C-17.9192872 48.71038325 -24.15339209 45.57219245 -30.4375 42.3125 C-30.56168758 38.00758537 -30.65211002 33.7036365 -30.7121582 29.39746094 C-30.73720529 27.93471093 -30.77125392 26.47208488 -30.81469727 25.00976562 C-30.87579356 22.89942781 -30.90380435 20.79075248 -30.92578125 18.6796875 C-30.95196533 17.41237793 -30.97814941 16.14506836 -31.00512695 14.83935547 C-30.25605615 10.18512886 -28.73423397 8.61885086 -25.4375 5.3125 C-22.24925432 3.71837716 -18.80853338 4.21075265 -15.3125 4.25 C-14.55839844 4.25451172 -13.80429688 4.25902344 -13.02734375 4.26367188 C-11.16402873 4.27546501 -9.30075445 4.29340058 -7.4375 4.3125 C-7.4375 3.6525 -7.4375 2.9925 -7.4375 2.3125 C-4.35229997 0.25569998 -3.52476496 0.01783186 0 0 Z " fill="#EFAA42" transform="translate(181.4375,446.6875)"/>
<path d="M0 0 C0.69851074 0.1652417 1.39702148 0.3304834 2.11669922 0.50073242 C5.68354139 1.42394066 8.2947795 2.17824352 10.5625 5.1875 C6.05926026 13.61120728 6.05926026 13.61120728 2.37109375 15.03125 C1.60925781 15.1859375 0.84742188 15.340625 0.0625 15.5 C-3.34541134 16.3231948 -4.24581953 16.91555333 -6.3125 19.84765625 C-10.21245142 27.56318514 -11.61579088 33.76566848 -11.5625 42.375 C-11.56056641 43.12515381 -11.55863281 43.87530762 -11.55664062 44.64819336 C-11.51344995 50.21559117 -11.1393397 55.66051233 -10.4375 61.1875 C-11.448125 61.105 -12.45875 61.0225 -13.5 60.9375 C-18.04710862 61.22620531 -20.99045573 62.29964291 -24.4375 65.1875 C-26.30800333 67.37510583 -28.01044494 69.61335327 -29.6640625 71.96875 C-33.40433745 76.64821293 -37.32495425 78.73011014 -42.9375 80.625 C-49.47893669 83.04666053 -52.86034417 85.30511176 -56.25 91.5 C-56.641875 92.386875 -57.03375 93.27375 -57.4375 94.1875 C-67.95447792 89.9238603 -75.08584243 74.49816249 -79.6015625 64.6484375 C-81.66939245 59.17931716 -81.76427146 53.98466776 -81.4375 48.1875 C-82.0975 47.8575 -82.7575 47.5275 -83.4375 47.1875 C-82.4475 47.1875 -81.4575 47.1875 -80.4375 47.1875 C-80.26927734 46.08728516 -80.26927734 46.08728516 -80.09765625 44.96484375 C-78.47826267 38.15189208 -73.66102356 32.66268714 -68.03515625 28.6953125 C-65.93416026 27.47578701 -63.88631391 26.43879132 -61.68359375 25.4296875 C-53.31395365 21.58514102 -48.007711 18.3864378 -42.44921875 10.7421875 C-37.41214522 4.34559316 -29.43818865 0.40989056 -21.625 -1.5 C-14.01613137 -2.24596751 -7.42797835 -1.79978562 0 0 Z " fill="#2C2C42" transform="translate(191.4375,245.8125)"/>
<path d="M0 0 C0.33 0 0.66 0 1 0 C2.73049806 21.19860124 -10.75778594 42.13170916 -23.90234375 57.62109375 C-24.94068359 58.79865234 -24.94068359 58.79865234 -26 60 C-26.80630859 60.91458984 -26.80630859 60.91458984 -27.62890625 61.84765625 C-40.46373217 75.45450178 -57.68183897 86.13198902 -75 93 C-75.66 93 -76.32 93 -77 93 C-89.08741271 80.44020564 -95.38415977 67.10516115 -95.15405273 49.94287109 C-95.11259568 47.96168231 -95.05769269 45.98078248 -95 44 C-93.741875 44.165 -92.48375 44.33 -91.1875 44.5 C-65.53349851 46.8813841 -42.22050414 42.10296427 -21.515625 26.109375 C-13.25185279 19.18012501 -7.25638508 11.87393585 -1.71484375 2.7109375 C-1.14894531 1.81632812 -0.58304687 0.92171875 0 0 Z " fill="#E9EEF1" transform="translate(332,289)"/>
<path d="M0 0 C3.54553043 3.47563646 6.84681354 7.07928169 10.125 10.8125 C19.39987375 21.05458591 32.68965349 31.49288197 46.875 32.9375 C48.24921863 32.98831516 49.62502102 33.02217708 51 33 C50.27897086 48.32186923 44.94934357 63.44374429 38 77 C22.48114042 76.22405702 8.26844423 67.31434597 -2.23046875 56.15234375 C-8.42410508 48.61880375 -16 38.02470591 -16 28 C-14.84082612 26.87491947 -13.6771275 25.75416051 -12.4921875 24.65625 C-6.43507134 17.93316819 -3.27081128 8.29280914 0 0 Z " fill="#F6996B" transform="translate(207,236)"/>
<path d="M0 0 C4.28848499 0.29542897 7.78575334 0.74502389 10.86328125 3.92578125 C16.19424066 11.79655258 18.51061227 19.47606173 17 29 C13.47196122 37.10346406 7.13534671 43.76340995 1 50 C-0.14082031 51.16015625 -0.14082031 51.16015625 -1.3046875 52.34375 C-11.54501823 62.14760762 -23.52792456 67.93063167 -37 72 C-38.53527344 72.47953125 -38.53527344 72.47953125 -40.1015625 72.96875 C-52.58936701 76.38313706 -66.49460625 76.28010328 -79 73 C-78.59951468 70.9550977 -78.1788145 68.91414983 -77.75 66.875 C-77.51796875 65.73804688 -77.2859375 64.60109375 -77.046875 63.4296875 C-75.82945196 59.44126426 -74.91485679 57.02314868 -72 54 C-68.62751457 53.16151542 -65.33585956 53.20649758 -61.875 53.25 C-45.3870166 53.17913474 -31.11698644 49.40312718 -18 39 C-17.31421875 38.48953125 -16.6284375 37.9790625 -15.921875 37.453125 C-5.04064341 28.79954712 0.49782296 16.76499608 5 4 C4.360625 3.71125 3.72125 3.4225 3.0625 3.125 C1 2 1 2 0 0 Z " fill="#C2D3E5" transform="translate(316,260)"/>
<path d="M0 0 C-0.66 1.32 -1.32 2.64 -2 4 C-2.66 4 -3.32 4 -4 4 C2.34006876 23.28126794 12.84616654 37.64832522 31 47 C36.86484387 49.64966402 42.64872173 51.88124273 49 53 C48.71253906 53.68578125 48.42507812 54.3715625 48.12890625 55.078125 C46.46409818 59.38704 45.21721345 63.80847397 43.90234375 68.234375 C43 71 43 71 42 72 C36.23593023 71.59770942 31.5589501 70.36587921 26.3125 68 C25.62188477 67.69022217 24.93126953 67.38044434 24.21972656 67.0612793 C7.2683524 59.17651103 -7.70668288 45.93218911 -16 29 C-16.85132444 25.71125261 -16.76104027 23.28985127 -16 20 C-15.82597656 19.17886719 -15.65195313 18.35773438 -15.47265625 17.51171875 C-14.02506936 11.86698644 -11.93063612 6.3917722 -8 2 C-5.10707986 0.63862581 -3.16644767 0 0 0 Z " fill="#9AB8D9" transform="translate(195,260)"/>
<path d="M0 0 C2.1942749 1.46539307 2.1942749 1.46539307 4 4 C4.57446582 6.99816668 4.50529066 9.94701868 4.45410156 12.99121094 C4.45468567 13.89887711 4.45526978 14.80654327 4.45587158 15.74171448 C4.45308649 18.73965801 4.4219742 21.73660532 4.390625 24.734375 C4.38316413 26.81373552 4.37747047 28.89310308 4.37347412 30.97247314 C4.35820575 36.44382154 4.31891326 41.9147448 4.2746582 47.38592529 C4.23373163 52.96946461 4.21546867 58.55307266 4.1953125 64.13671875 C4.15242043 75.09133256 4.08415429 86.04563092 4 97 C3.01 96.67 2.02 96.34 1 96 C-0.51861755 95.90796257 -2.04110426 95.86998716 -3.5625 95.875 C-4.34753906 95.87242187 -5.13257813 95.86984375 -5.94140625 95.8671875 C-8.06438977 95.87023634 -8.06438977 95.87023634 -10 97 C-10.06943137 84.79577085 -10.12277636 72.5915885 -10.15543652 60.38720226 C-10.1711097 54.72054773 -10.19237822 49.05402807 -10.22631836 43.38745117 C-10.25885272 37.92153404 -10.27684055 32.45574684 -10.28463173 26.98974037 C-10.29018589 24.90167507 -10.30103145 22.81361708 -10.31719017 20.72560692 C-10.33888562 17.80674094 -10.34197022 14.88841571 -10.34057617 11.96948242 C-10.351362 11.10129883 -10.36214783 10.23311523 -10.3732605 9.33862305 C-10.34271748 3.45030945 -10.34271748 3.45030945 -8.69229603 1.28175831 C-5.84721222 -0.87313053 -3.42775497 -0.42095237 0 0 Z " fill="#545460" transform="translate(185,352)"/>
<path d="M0 0 C2.15911865 0.9667511 2.15911865 0.9667511 4 3 C4.38054628 6.1086276 4.50558969 8.8611574 4.45410156 11.96948242 C4.45468567 12.88675613 4.45526978 13.80402985 4.45587158 14.74909973 C4.45308196 17.78493931 4.4219483 20.81980043 4.390625 23.85546875 C4.38316574 25.95867883 4.37747132 28.06189585 4.37347412 30.16511536 C4.35819305 35.70387929 4.31888968 41.24222442 4.2746582 46.78082275 C4.23375895 52.43129816 4.21547452 58.08184115 4.1953125 63.73242188 C4.15239804 74.82179871 4.08411662 85.91086454 4 97 C3.34 96.67 2.68 96.34 2 96 C0.52331663 95.9047301 -0.95775457 95.87014041 -2.4375 95.875 C-3.21996094 95.87242187 -4.00242187 95.86984375 -4.80859375 95.8671875 C-7.17895347 95.91617452 -7.17895347 95.91617452 -10 97 C-10.09262149 84.94345485 -10.16372524 72.88699414 -10.20724869 60.83016586 C-10.22813628 55.23186439 -10.25647564 49.63380606 -10.30175781 44.03564453 C-10.34517327 38.63455053 -10.36912828 33.23369062 -10.37950897 27.83243561 C-10.38690804 25.77029993 -10.40135647 23.70817726 -10.42292023 21.64614105 C-10.45189678 18.76088124 -10.45595838 15.87659251 -10.45410156 12.99121094 C-10.46848267 12.13597336 -10.48286377 11.28073578 -10.49768066 10.39958191 C-10.45741991 4.62979599 -10.45741991 4.62979599 -8.15911865 1.46539307 C-5.22458641 -0.52627293 -3.47936304 -0.50740711 0 0 Z " fill="#545460" transform="translate(333,352)"/>
<path d="M0 0 C2.87029869 1.79393668 4.49131638 2.98263276 6 6 C6.29599687 9.93124675 6.27802989 13.8714177 6.3125 17.8125 C6.34150391 18.90626953 6.37050781 20.00003906 6.40039062 21.12695312 C6.46446942 29.21566916 6.46446942 29.21566916 4.10546875 33.19921875 C0.5344606 36.25345763 -2.15805942 36.39234654 -6.73828125 36.35546875 C-10.35701199 35.78672178 -11.88030223 33.84834388 -14 31 C-15.47410198 26.57769405 -15.22495829 22.25771583 -15.25 17.625 C-15.270625 16.67882812 -15.29125 15.73265625 -15.3125 14.7578125 C-15.36201971 5.9433035 -15.36201971 5.9433035 -12 2 C-7.98141405 -0.6790573 -4.72358279 -0.69610694 0 0 Z " fill="#C4D3E2" transform="translate(186,447)"/>
<path d="M0 0 C2.75569447 2.18159145 4.43588747 3.87177494 6 7 C6.26640863 10.43142384 6.23156403 13.87188717 6.25 17.3125 C6.270625 18.26318359 6.29125 19.21386719 6.3125 20.19335938 C6.36139595 28.93962218 6.36139595 28.93962218 3 33 C2.53335937 33.58910156 2.06671875 34.17820312 1.5859375 34.78515625 C-1.06107168 36.81279136 -3.5530683 36.46293437 -6.7734375 36.36328125 C-10.03614855 35.83094418 -11.77002644 34.3693469 -14 32 C-16.04532597 27.90934806 -15.2731755 22.68360174 -15.3125 18.1875 C-15.35600586 16.5468457 -15.35600586 16.5468457 -15.40039062 14.87304688 C-15.46446942 6.78433084 -15.46446942 6.78433084 -13.10546875 2.80078125 C-9.09720473 -0.62743714 -5.12051932 -0.8136231 0 0 Z " fill="#C4D4E3" transform="translate(335,447)"/>
<path d="M0 0 C2.8001391 0.57649923 3.98596416 0.98830347 6.25 2.875 C8.89795903 7.60349827 8.80802314 11.69991599 8 17 C6.93483204 20.08166913 5.66634566 22.98319576 4.296875 25.94140625 C2.96924043 29.0725444 2.17518955 32.05949531 1.4375 35.375 C0.01597396 41.51085251 -1.60573516 45.40382344 -7 49 C-9.64 49 -12.28 49 -15 49 C-14.67 33.82 -14.34 18.64 -14 3 C-13.67 3 -13.34 3 -13 3 C-13 15.54 -13 28.08 -13 41 C-12.34 41 -11.68 41 -11 41 C-8.80773548 33.01152094 -6.66323795 25.01077694 -4.53369141 17.00537109 C-3.60720103 13.52403901 -2.67846462 10.04330596 -1.75 6.5625 C-1.41484375 5.30566406 -1.0796875 4.04882812 -0.734375 2.75390625 C-0.49203125 1.84511719 -0.2496875 0.93632812 0 0 Z " fill="#F6A77C" transform="translate(341,136)"/>
<path d="M0 0 C10.48907763 13.30558922 16.77595458 31.3055831 19 48 C11.995053 48.47491166 11.995053 48.47491166 8.25 46.6875 C4.8390044 42.61325526 3.57562736 38.02018069 2 33 C1.4814219 31.43675006 0.96077283 29.87418472 0.4375 28.3125 C0.08558594 27.22001953 0.08558594 27.22001953 -0.2734375 26.10546875 C-0.96703432 24.00504577 -0.96703432 24.00504577 -1.8515625 22.05078125 C-4.2763102 16.46479706 -4.89802609 11.04985995 -4 5 C-2 1.8125 -2 1.8125 0 0 Z " fill="#F2986C" transform="translate(167,137)"/>
<path d="M0 0 C3.26275969 1.60253423 5.23017874 3.95024374 7.375 6.875 C8.69840498 11.37457692 8.40389533 14.98064512 6.6875 19.3125 C5 22 5 22 2 24 C1.97421875 23.32453125 1.9484375 22.6490625 1.921875 21.953125 C1.60663135 16.36705553 1.60663135 16.36705553 -0.6875 11.375 C-3.71303653 9.57603233 -5.53635063 9.48413733 -9 10 C-11.30887599 11.69317573 -11.92786478 12.65033692 -12.51171875 15.48046875 C-12.56972656 16.37378906 -12.62773437 17.26710938 -12.6875 18.1875 C-12.75324219 19.08855469 -12.81898438 19.98960937 -12.88671875 20.91796875 C-12.92410156 21.60503906 -12.96148437 22.29210937 -13 23 C-13.99 23 -14.98 23 -16 23 C-19.35360241 19.2737751 -19.61840829 15.32515582 -19.49609375 10.51171875 C-18.66789838 6.31857211 -16.19763024 3.70887329 -13 1 C-9.0327265 -0.98363675 -4.3131746 -0.54751158 0 0 Z " fill="#2C2C42" transform="translate(336,343)"/>
<path d="M0 0 C3.48350269 1.99753301 6.19448387 4.38896774 8 8 C8.53083912 12.83846804 8.83533805 17.41339664 6.125 21.625 C5.073125 22.800625 5.073125 22.800625 4 24 C3.34 24 2.68 24 2 24 C1.96261719 23.24074219 1.92523438 22.48148437 1.88671875 21.69921875 C1.82097656 20.70535156 1.75523437 19.71148437 1.6875 18.6875 C1.62949219 17.70136719 1.57148438 16.71523438 1.51171875 15.69921875 C0.94532532 12.71160149 0.46807511 11.72592665 -2 10 C-5.5 9.41666667 -5.5 9.41666667 -9 10 C-11.85609317 12.89603853 -12.42487406 15.25808574 -12.6875 19.25 C-12.75324219 20.14203125 -12.81898438 21.0340625 -12.88671875 21.953125 C-12.92410156 22.62859375 -12.96148437 23.3040625 -13 24 C-18.90405117 18.24733475 -18.90405117 18.24733475 -19.25 13.75 C-18.90319934 8.5479901 -17.32538385 5.57389332 -14 1.625 C-9.39708274 -0.86824685 -5.1092679 -0.99265776 0 0 Z " fill="#2C2C42" transform="translate(187,343)"/>
<path d="M0 0 C3.0625 1.9375 3.0625 1.9375 5 5 C5.94728069 9.67719839 5.66588027 12.93459157 3.125 17 C-0.12166803 20.05568756 -2.48634347 20.3919175 -6.9609375 20.359375 C-10.38006698 19.7567698 -11.93189052 17.63213933 -14 15 C-15.55024464 11.89951072 -15.28992015 9.42105782 -15 6 C-10.99881489 -0.1351505 -7.03777522 -1.03139809 0 0 Z " fill="#E9EEF0" transform="translate(335,447)"/>
<path d="M0 0 C2.87029869 1.79393668 4.49131638 2.98263276 6 6 C6.37712577 10.99691647 6.09290612 13.99067725 3 18 C-0.68497796 20.45665197 -3.71971786 20.70086491 -8 20 C-10.8100346 18.20636089 -12.50940468 16.98119065 -14 14 C-14.6469176 9.2959849 -14.63833677 6.00898393 -12.0625 1.9375 C-7.95859581 -0.65884755 -4.73725096 -0.95259938 0 0 Z " fill="#E9EEF0" transform="translate(186,447)"/>
<path d="M0 0 C3.60188716 0.59087138 5.50125598 2.01332856 8.1875 4.4375 C8.88230469 5.05496094 9.57710938 5.67242187 10.29296875 6.30859375 C12 8 12 8 13 10 C4.88055466 8.83760077 4.88055466 8.83760077 1.4375 5.5625 C0 3 0 3 0 0 Z " fill="#17414E" transform="translate(312,252)"/>
<path d="M0 0 C0.66 0.33 1.32 0.66 2 1 C-1.54439462 8.32735426 -1.54439462 8.32735426 -5.11328125 9.9765625 C-7.3125 10.5 -7.3125 10.5 -11 11 C-9.52202738 7.32943063 -7.52384523 5.58914217 -4.375 3.25 C-3.55773437 2.63640625 -2.74046875 2.0228125 -1.8984375 1.390625 C-0.95871094 0.70226562 -0.95871094 0.70226562 0 0 Z " fill="#133F4C" transform="translate(199,251)"/>
</svg>
